
<svg width="17px" height="23px" viewBox="0 0 17 23" version="1.1" xmlns="http://www.w3.org/2000/svg" xmlns:xlink="http://www.w3.org/1999/xlink">
    <g id="Page-1" stroke="none" stroke-width="1" fill="none" fill-rule="evenodd" opacity="0.300000012">
        <g id="Sign-In" transform="translate(-34.000000, -429.000000)">
            <g id="Password" transform="translate(-6.000000, 429.000000)">
                <g transform="translate(40.000000, 0.000000)">
                    <path d="M8.5,0.5 C5.7,0.5 3.5,2.7 3.5,5.5 L3.5,8.5 L13.5,8.5 L13.5,5.5 C13.5,2.7 11.3,0.5 8.5,0.5 Z" id="Fill-1" fill-opacity="0" fill="#000000"></path>
                    <path d="M8.5,0.5 C5.7,0.5 3.5,2.7 3.5,5.5 L3.5,8.5 L13.5,8.5 L13.5,5.5 C13.5,2.7 11.3,0.5 8.5,0.5 Z" id="Stroke-3" stroke="#000000" stroke-linecap="square"></path>
                    <polygon id="Fill-4" fill-opacity="0" fill="#000000" points="0.5 8.5 16.5 8.5 16.5 22.5 0.5 22.5"></polygon>
                    <polygon id="Stroke-5" stroke="#000000" stroke-linecap="square" points="0.5 8.5 16.5 8.5 16.5 22.5 0.5 22.5"></polygon>
                    <path d="M9.91421,13.085786 C10.69526,13.866835 10.69526,15.133165 9.91421,15.914214 C9.13316,16.695262 7.86684,16.695262 7.08579,15.914214 C6.30474,15.133165 6.30474,13.866835 7.08579,13.085786 C7.86684,12.30474 9.13316,12.30474 9.91421,13.085786" id="Fill-6" fill-opacity="0" fill="#000000"></path>
                    <path d="M9.91421,13.08579 C10.69526,13.86684 10.69526,15.13316 9.91421,15.91421 C9.13316,16.69526 7.86684,16.69526 7.08579,15.91421 C6.304738,15.13316 6.304738,13.86684 7.08579,13.08579 C7.86684,12.30474 9.13316,12.30474 9.91421,13.08579" id="Stroke-7" stroke="#000000" stroke-linecap="square"></path>
                    <path d="M8.5,16.5 L8.5,18.5" id="Fill-8" fill-opacity="0" fill="#000000"></path>
                    <path d="M8.5,16.5 L8.5,18.5" id="Stroke-9" stroke="#000000" stroke-linecap="square"></path>
                </g>
            </g>
        </g>
    </g>
</svg>