
<svg width="262px" height="279px" viewBox="0 0 262 279" version="1.1" xmlns="http://www.w3.org/2000/svg" xmlns:xlink="http://www.w3.org/1999/xlink">
    <g id="Page-2" stroke="none" stroke-width="1" fill="none" fill-rule="evenodd">
        <g id="Group-3" transform="translate(-15.000000, -10.000000)">
            <rect id="Rectangle" x="0" y="10" width="300" height="300" rx="41"></rect>
            <g id="Triangle-2" transform="translate(3.000000, 0.000000)">
                <path d="M85,84 L146,149 C122.023198,149 104.040596,149 92.0521951,149 C76.929485,149 54.24542,149 24,149 C24.5234502,144.294901 24.4255038,139.918302 24.9179361,136.270642 C25.5984495,131.229781 26.014578,127.164338 26.698733,124.163718 C26.7412767,123.977126 26.6603284,123.874965 26.698733,123.694891 C26.7059207,123.661188 27.112032,122.927953 27.2073264,122.338059 C27.3666615,121.351739 27.3437294,120.091145 27.5920656,119.604609 C27.6650916,119.461538 28.0829126,119.218081 28.0842471,119.210473 C28.1203743,119.004519 28.0416935,118.889649 28.0842471,118.685179 C28.3822203,117.253425 29.1488191,116.03542 29.4870933,114.644878 C30.1695345,111.839571 31.1884768,109.124973 32.1611237,106.519105 C33.030462,104.190016 34.0139976,101.916535 34.9361922,99.7452378 C36.1375368,96.9166846 37.6103926,94.2153393 38.9207954,91.6638597 C39.9938226,89.5745728 41.1868869,87.543962 42.2974998,85.6385931 C43.5041958,83.5683839 44.9902962,81.6524755 46.1820391,79.7893777 C47.3618379,77.9449526 48.7945559,76.2762857 49.9831163,74.7090967 C51.0876139,73.2527494 53.101613,70.5488708 54.9406347,68.7083492 C55.0203633,68.6285556 55.0760422,68.5265955 55.1549072,68.4501038 C55.2521008,68.3558351 55.3212555,68.2513108 55.4160767,68.1641541 C55.4330581,68.1485452 55.5281056,68.0297614 55.5450134,68.0143738 C55.6948513,67.8780079 55.7403435,67.7747076 55.8847046,67.654892 C55.8988605,67.643143 56.0878379,67.399415 56.101944,67.3878174 C56.230345,67.2822497 56.3341331,67.0936046 56.4586182,67 C56.548022,66.9327742 56.6130639,66.8453756 56.6716003,66.7814026 C56.7588848,66.6860117 56.8477259,66.579929 56.9331055,66.4772186 C56.9945228,66.4033345 57.0468903,66.3238651 57.1296234,66.2857361 C57.1991107,66.2029429 57.3116285,66.1146214 57.4166107,65.9838715 C57.6899193,65.6434796 57.8724248,64.9980459 58.0551658,64.948374 C58.3348799,64.8723432 58.3541136,64.6648683 58.5140381,64.4619228 C58.8145058,64.0806267 59.3352994,63.8505114 59.5992856,63.5115254 C60.6666456,62.1409225 61.2118212,60.6853089 63.0534773,60.5 C63.2594404,60.4792758 64.2806617,61.7260918 64.9607545,62.5019706 C65.2505472,62.8325785 65.3984028,63.3689327 65.5254732,63.209732 C65.8638604,62.7857825 66.875176,64.6140609 67.347589,65.1945343 C67.4019684,65.2613525 67.4887571,65.3005928 67.4613455,65.3758232 C67.4458887,65.4182442 67.2460575,65.5731107 67.347589,65.5025408 C67.5493762,65.3622878 68.2770522,66.1680489 68.8269699,66.7814026 C69.0444512,67.0239715 69.1250124,67.3181064 69.2998285,67.3878174 C72.1894729,68.5401148 77.4228634,74.077509 85,84 Z" id="Triangle" fill="#A2ED88"></path>
                <path d="M102.214426,188.742811 C105.30482,192.107991 107.658433,194.652009 109.275265,196.374863 C121.213988,209.096453 139.07338,228.235211 162.85344,253.791138 L66.897276,254.426814 C61.4063646,254.601672 57.2938888,254.655735 54.5598483,254.589003 C52.1585752,254.530392 46.2809483,255.049422 42.0054191,254.754043 C41.23124,254.700559 40.847247,254.37959 40.8534403,253.791138 C42.1452517,242.179526 43.3426069,233.788037 44.4455059,228.616673 C44.4682458,228.510048 45.1389735,224.320184 45.1475603,224.271232 C45.4366607,222.623126 45.9539503,221.025142 46.3405336,219.436016 C47.0229748,216.630709 48.0419171,213.916111 49.014564,211.310243 C49.8839022,208.981154 50.8674378,206.707673 51.7896325,204.536376 C52.990977,201.707823 54.4638329,199.006477 55.7742356,196.454998 C56.8472629,194.365711 58.0403272,192.3351 59.1509401,190.429731 C60.357636,188.359522 61.8437365,186.443613 63.0354793,184.580516 C64.2152781,182.73609 65.6479962,181.067424 66.8365565,179.500235 C67.9410542,178.043887 69.9550533,175.340009 71.7940749,173.499487 C71.8738036,173.419693 71.9294824,173.317733 72.0083475,173.241242 C72.105541,173.146973 72.1746958,173.042449 72.2695169,172.955292 C72.2864983,172.939683 72.3815458,172.820899 72.3984537,172.805512 C72.5482916,172.669146 72.5937838,172.565845 72.7381448,172.44603 C72.7523007,172.434281 72.9412782,172.190553 72.9553842,172.178955 C73.0837853,172.073388 73.1875734,171.884742 73.3120584,171.791138 C73.4014622,171.723912 73.4665042,171.636513 73.5250406,171.57254 C73.612325,171.47715 73.7011661,171.371067 73.7865457,171.268357 C73.847963,171.194472 73.9003305,171.115003 73.9830637,171.076874 C74.052551,170.994081 74.1650688,170.905759 74.270051,170.775009 C74.5433595,170.434617 74.7258651,169.789184 74.9086061,169.739512 C75.1883202,169.663481 75.2075539,169.456006 75.3674784,169.253061 C75.6679461,168.871765 76.1887397,168.641649 76.4527259,168.302663 C76.8144847,167.838127 77.5282311,163.945938 80.1620809,164.954274 C80.4913003,165.080311 80.9597599,165.785062 81.3268608,166.291705 C81.3786704,166.363208 81.6425818,166.589462 81.6438713,166.717467 C81.644087,166.738874 82.0300945,166.781958 81.9407618,166.7999 C81.8765576,166.812795 81.6386142,166.842055 81.6455719,166.846828 C81.6824145,166.872099 81.682654,166.890313 81.6462903,166.901472 C92.3007475,177.458301 99.1567928,184.738748 102.214426,188.742811 Z" id="Triangle" fill="#A2ED88" transform="translate(101.853403, 209.816869) rotate(-89.246832) translate(-101.853403, -209.816869) "></path>
                <path d="M156.982804,204.177184 C158.340378,205.671703 159.370375,206.79909 160.072794,207.559346 C161.478172,209.080443 163.726561,210.9408 164.650618,211.92545 C176.589341,224.64704 194.834042,243.169753 219.384722,267.493588 L219.048591,267.685757 L218.832885,267.809078 L216.680949,267.705459 L123.428558,268.129264 C117.937646,268.304122 113.82517,268.358185 111.09113,268.291452 C108.689857,268.232842 102.81223,268.751872 98.5367007,268.456493 C98.1862681,268.432283 100.166281,263.892727 99.975741,263.758906 C99.822139,263.651028 99.3246006,263.566065 98.4831257,263.504019 C99.7749372,251.892406 99.8738885,247.490487 100.976787,242.319123 C100.999527,242.212498 101.670255,238.022633 101.678842,237.973682 C101.967942,236.325576 102.603414,234.807612 102.989997,233.218487 C103.124827,232.664241 103.378418,232.18341 103.562633,231.643861 C103.994809,230.378058 104.31897,228.999749 104.763963,227.758709 C105.030812,227.014495 105.373832,226.279659 105.59499,225.537247 C105.627333,225.428675 105.690197,225.291463 105.783584,225.12561 C106.276614,224.239385 106.610782,223.577821 106.786089,223.140919 C107.417067,221.568385 107.831797,220.040795 108.431622,218.539944 C108.456652,218.477315 108.480239,218.41345 108.506624,218.351327 C108.552008,218.244471 108.634302,218.198174 108.688801,218.097045 C109.027053,217.469387 109.297089,216.76565 109.605886,216.11908 C110.438432,214.375867 111.426291,212.579422 112.221794,210.916474 C112.342109,210.664963 112.66124,210.601549 112.786526,210.357606 C113.181345,209.588855 113.575302,208.71047 113.993782,207.912915 C114.375206,207.185984 114.844723,206.625695 115.137462,205.927655 C115.18072,205.824507 115.339346,205.769298 115.395791,205.672008 C115.542428,205.419262 115.824444,205.303384 115.968248,205.105495 C116.100485,204.923525 115.892237,204.608994 116.023718,204.383424 C116.079764,204.287272 116.163112,204.099641 116.227361,204.008972 C116.748417,203.273659 117.144535,202.542009 117.649423,201.804573 C118.422696,200.675134 119.294198,199.450453 119.981702,198.375651 C121.161501,196.531225 122.727229,194.685241 123.91579,193.118052 C124.691486,192.095249 125.989669,190.744919 127.125981,189.247533 C127.60764,188.612824 134.520514,181.590602 135.244658,180.64092 C135.647561,180.112532 136.066947,179.767306 136.48095,179.417465 C136.62929,179.292115 136.472259,179.015618 136.771321,179.13011 C137.10054,179.256147 136.471621,179.129 136.838722,179.635643 C136.859286,179.664024 135.090582,180.971123 134.834829,181.618728 C134.44623,182.602722 136.524765,183.428083 136.525543,183.505281 C136.525759,183.526688 136.912045,183.609527 136.822712,183.627468 C136.758508,183.640363 136.607631,183.412388 136.614588,183.417161 C136.651431,183.442432 136.687572,183.478952 136.723011,183.526722 C136.84303,183.323054 136.918764,183.248106 136.950214,183.301878 C138.576557,186.082587 140.537858,187.833289 142.10665,189.404697 C144.538758,191.840863 146.422117,193.456856 147.703924,194.800948 C151.851637,199.150204 155.256541,201.91659 156.982804,204.177184 Z" id="Triangle" fill="#54DF3D" transform="translate(158.933924, 223.825488) rotate(-135.299008) translate(-158.933924, -223.825488) "></path>
                <path d="M133.67007,202.252341 L133.333939,202.44451 L133.118234,202.567831 L130.966298,202.464213 C101.461578,201.615329 79.3944917,201.22413 64.7650392,201.290617 C51.0506173,201.352945 35.409027,200.273921 24.9004488,200.831749 C21.8146086,200.995555 18.1633298,199.848454 15.2691513,200.627927 C14.8298106,200.746252 13.4232,200.006467 12.8917997,200.657221 C12.6823099,200.913762 12.6590597,201.766437 12.8220492,203.215246 C12.4716167,203.191037 12.7604689,200.486614 12.5699288,200.352793 C12.4163268,200.244915 12.4825086,199.548241 12.7684743,198.262772 C14.0602858,186.65116 14.159237,182.24924 15.262136,177.077876 C15.2848759,176.971251 15.9556036,172.781387 15.9641904,172.732435 C16.2532908,171.08433 16.8887624,169.566366 17.2753456,167.97724 C17.4101757,167.422995 17.6637665,166.942164 17.8479818,166.402614 C18.2801577,165.136812 18.604319,163.758502 19.049312,162.517462 C19.3161605,161.773249 19.6591808,161.038413 19.8803386,160.296 C19.9126811,160.187428 19.9755458,160.050216 20.0689327,159.884364 C20.5619625,158.998138 20.8961307,158.336575 21.0714373,157.899673 C21.7024154,156.327138 22.1171456,154.799549 22.7169709,153.298697 C22.7420008,153.236069 22.7655876,153.172203 22.7919726,153.11008 C22.8373565,153.003224 22.9196506,152.956927 22.9741499,152.855799 C23.3124013,152.22814 23.5824373,151.524404 23.8912345,150.877834 C24.723781,149.13462 25.7116399,147.338176 26.5071421,145.675228 C26.6274573,145.423716 26.9465886,145.360303 27.0718744,145.116359 C27.4666936,144.347608 27.8606501,143.469224 28.2791309,142.671669 C28.6605547,141.944738 29.1300716,141.384448 29.422811,140.686408 C29.4660685,140.58326 29.6246949,140.528051 29.6811396,140.430762 C29.8277762,140.178015 30.1097927,140.062137 30.2535965,139.864249 C30.3858335,139.682278 30.1775855,139.367747 30.309067,139.142177 C30.3651123,139.046026 30.4484601,138.858395 30.5127097,138.767726 C31.0337656,138.032412 31.4298832,137.300763 31.9347715,136.563326 C32.7080447,135.433888 33.5795466,134.209206 34.2670509,133.134404 C35.4468497,131.289979 37.0125778,129.443995 38.2011382,127.876806 C38.9768347,126.854003 40.2750175,125.503672 41.4113299,124.006287 C41.485197,123.908948 42.8394694,119.522025 45.9107466,119.249056 C46.1699957,119.226015 46.3363353,119.891337 46.6219515,119.921718 C47.3438152,119.998501 47.6219207,120.749318 48.5719946,121.216036 C51.3419708,122.576768 56.4845392,130.021226 60.5004131,133.048049 C68.062755,138.747896 77.8182571,150.495885 89.5657655,160.53823 C97.9639927,167.717446 112.665428,181.622149 133.67007,202.252341 Z" id="Triangle" fill="#54DF3D" transform="translate(73.079744, 161.231859) rotate(-43.404624) translate(-73.079744, -161.231859) "></path>
                <path d="M194.678256,115.94298 L194.342125,116.135149 L194.12642,116.25847 L191.974483,116.154852 C167.298105,115.870048 150.550226,115.676962 141.730846,115.575595 C135.641794,115.505609 130.384413,114.960299 125.773225,114.981256 C116.396505,115.02387 105.866764,115.054673 96.9447891,114.91815 C92.8174544,114.854994 89.2323675,114.345954 85.9086345,114.522388 C83.9282257,114.627514 81.5549856,114.860248 79.4583845,114.74128 C78.5300232,114.688602 77.6249434,114.65483 76.8143057,114.626617 C76.6030573,114.619265 76.3277616,114.682413 76.1134357,114.740137 C75.9953585,114.771938 75.7385601,114.595385 75.5165157,114.546874 C74.9123785,114.414884 74.2885666,113.872003 73.8999854,114.34786 C73.6904956,114.604401 73.6672454,115.457076 73.8302349,116.905886 C73.4798023,116.881676 73.7686546,114.177253 73.5781145,114.043432 C73.4245125,113.935554 73.4906943,113.23888 73.77666,111.953411 C75.0684714,100.341799 75.1674227,95.9398792 76.2703217,90.7685149 C76.2930616,90.66189 76.9637893,86.4720259 76.9723761,86.4230743 C77.2614765,84.7749686 77.8969481,83.2570046 78.2835313,81.667879 C78.4183614,81.1136338 78.6719522,80.6328025 78.8561675,80.0932532 C79.2883434,78.8274507 79.6125046,77.4491412 80.0574976,76.2081012 C80.3243462,75.4638878 80.6673665,74.7290519 80.8885242,73.986639 C80.9208667,73.8780674 80.9837314,73.7408552 81.0771184,73.5750026 C81.5701481,72.6887772 81.9043163,72.0272135 82.0796229,71.5903116 C82.7106011,70.0177775 83.1253312,68.4901877 83.7251566,66.9893363 C83.7501865,66.9267078 83.7737733,66.8628423 83.8001583,66.8007191 C83.8455422,66.6938632 83.9278363,66.6475664 83.9823356,66.5464376 C84.3205869,65.9187792 84.5906229,65.2150427 84.8994202,64.5684729 C85.7319667,62.8252595 86.7198255,61.0288145 87.5153277,59.3658667 C87.635643,59.1143551 87.9547743,59.0509416 88.0800601,58.8069981 C88.4748792,58.0382474 88.8688357,57.1598629 89.2873166,56.3623075 C89.6687404,55.6353767 90.1382573,55.0750874 90.4309967,54.3770471 C90.4742542,54.2738992 90.6328806,54.2186903 90.6893252,54.1214009 C90.8359619,53.8686544 91.1179784,53.752776 91.2617822,53.5548879 C91.3940192,53.3729169 91.1857712,53.058386 91.3172527,52.8328162 C91.373298,52.7366648 91.4566458,52.5490337 91.5208954,52.4583647 C92.0419513,51.7230514 92.4380689,50.9914018 92.9429572,50.253965 C93.7162304,49.1245268 94.5877323,47.8998451 95.2752366,46.825043 C96.4550354,44.9806178 98.0207635,43.1346338 99.2093238,41.5674448 C99.9850204,40.5446417 101.283203,39.1943109 102.419516,37.6969257 C102.468875,37.6318814 103.916315,36.6770144 105.239405,35.2885994 C105.896327,34.5992437 105.899954,33.0302598 106.918932,32.9396951 C107.178181,32.9166535 107.344521,33.5819763 107.630137,33.6123569 C108.352001,33.6891404 108.630106,34.4399573 109.58018,34.9066749 C112.350156,36.2674075 117.492725,43.7118649 121.508599,46.7386876 C129.070941,52.4385348 138.826443,64.1865236 150.573951,74.2288689 C158.972178,81.4080847 173.673613,95.3127884 194.678256,115.94298 Z" id="Triangle" fill="#54DF3D" transform="translate(134.087929, 74.922498) rotate(46.157793) translate(-134.087929, -74.922498) "></path>
                <path d="M280.888925,177.62363 L280.552794,177.815799 L280.337088,177.93912 L278.185152,177.835501 C253.508774,177.550698 236.760895,177.357612 227.941515,177.256244 C221.852463,177.186259 216.595082,176.640949 211.983894,176.661906 C202.607173,176.70452 192.077432,176.735323 183.155458,176.5988 C179.028123,176.535644 175.443036,176.026604 172.119303,176.203038 C170.138895,176.308164 167.765654,176.540898 165.669053,176.42193 C164.740692,176.369252 163.835612,176.33548 163.024975,176.307267 C162.813726,176.299914 162.53843,176.363063 162.324104,176.420786 C162.206027,176.452587 161.949229,176.276035 161.727184,176.227524 C161.123047,176.095534 160.499235,175.552653 160.110654,176.02851 C159.901164,176.285051 159.877914,177.137726 160.040904,178.586535 C159.690471,178.562325 159.979323,175.857903 159.788783,175.724082 C159.635181,175.616204 159.701363,174.91953 159.987329,173.634061 C161.27914,162.022448 161.378092,157.620529 162.48099,152.449165 C162.50373,152.34254 163.174458,148.152676 163.183045,148.103724 C163.472145,146.455618 164.107617,144.937654 164.4942,143.348529 C164.62903,142.794284 164.882621,142.313452 165.066836,141.773903 C165.499012,140.508101 165.823173,139.129791 166.268166,137.888751 C166.535015,137.144538 166.878035,136.409702 167.099193,135.667289 C167.131536,135.558717 167.1944,135.421505 167.287787,135.255652 C167.780817,134.369427 168.114985,133.707863 168.290292,133.270961 C168.92127,131.698427 169.336,130.170838 169.935825,128.669986 C169.960855,128.607358 169.984442,128.543492 170.010827,128.481369 C170.056211,128.374513 170.138505,128.328216 170.193004,128.227087 C170.531256,127.599429 170.801292,126.895693 171.110089,126.249123 C171.942636,124.505909 172.930494,122.709464 173.725997,121.046517 C173.846312,120.795005 174.165443,120.731591 174.290729,120.487648 C174.685548,119.718897 175.079505,118.840513 175.497985,118.042957 C175.879409,117.316027 176.348926,116.755737 176.641666,116.057697 C176.684923,115.954549 176.843549,115.89934 176.899994,115.802051 C177.046631,115.549304 177.328647,115.433426 177.472451,115.235538 C177.604688,115.053567 177.39644,114.739036 177.527921,114.513466 C177.583967,114.417315 177.667315,114.229684 177.731564,114.139015 C178.25262,113.403701 178.648738,112.672052 179.153626,111.934615 C179.926899,110.805177 180.798401,109.580495 181.485905,108.505693 C182.665704,106.661268 184.231432,104.815284 185.419993,103.248095 C186.195689,102.225292 187.493872,100.874961 188.630184,99.3775755 C188.679544,99.3125313 190.126984,98.3576643 191.450074,96.9692492 C192.106996,96.2798935 192.110623,94.7109096 193.129601,94.6203449 C193.38885,94.5973034 193.55519,95.2626262 193.840806,95.2930067 C194.56267,95.3697902 194.840775,96.1206072 195.790849,96.5873247 C198.560825,97.9480573 203.703394,105.392515 207.719268,108.419337 C215.28161,114.119185 225.037112,125.867173 236.78462,135.909519 C245.182847,143.088735 259.884282,156.993438 280.888925,177.62363 Z" id="Triangle" fill="#54DF3D" transform="translate(220.298598, 136.603148) rotate(136.297241) translate(-220.298598, -136.603148) "></path>
                <path d="M208.303853,172.841412 L269.303853,237.841412 L147.303853,237.841412 C148.595664,226.2298 149.793019,217.838311 150.895918,212.666947 C150.918658,212.560322 151.589386,208.370458 151.597973,208.321506 C151.887073,206.673401 152.404363,205.075416 152.790946,203.48629 C153.473387,200.680983 154.49233,197.966385 155.464977,195.360517 C156.334315,193.031428 157.31785,190.757947 158.240045,188.58665 C159.44139,185.758097 160.914245,183.056751 162.224648,180.505272 C163.297675,178.415985 164.49074,176.385374 165.601353,174.480005 C166.808049,172.409796 168.294149,170.493887 169.485892,168.63079 C170.665691,166.786365 172.098409,165.117698 173.286969,163.550509 C174.391467,162.094161 176.405466,159.390283 178.244487,157.549761 C178.324216,157.469968 178.379895,157.368007 178.45876,157.291516 C178.555954,157.197247 178.625108,157.092723 178.719929,157.005566 C178.736911,156.989957 178.831958,156.871173 178.848866,156.855786 C178.998704,156.71942 179.044196,156.61612 179.188557,156.496304 C179.202713,156.484555 179.391691,156.240827 179.405797,156.229229 C179.534198,156.123662 179.637986,155.935017 179.762471,155.841412 C179.851875,155.774186 179.916917,155.686788 179.975453,155.622815 C180.062738,155.527424 180.151579,155.421341 180.236958,155.318631 C180.298376,155.244746 180.350743,155.165277 180.433476,155.127148 C180.502964,155.044355 180.615481,154.956033 180.720464,154.825283 C180.993772,154.484892 181.176278,153.839458 181.359019,153.789786 C181.638733,153.713755 181.657966,153.50628 181.817891,153.303335 C182.118359,152.922039 182.639152,152.691923 182.903138,152.352937 C183.970498,150.982334 184.515674,149.526721 186.35733,149.341412 C186.563293,149.320688 187.584514,150.567504 188.264607,151.343383 C188.5544,151.67399 188.702256,152.210345 188.829326,152.051144 C189.167713,151.627194 190.179029,153.455473 190.651442,154.035946 C190.705821,154.102764 190.79261,154.142005 190.765198,154.217235 C190.749741,154.259656 190.54991,154.414523 190.651442,154.343953 C190.853229,154.2037 191.580905,155.009461 192.130823,155.622815 C192.348304,155.865383 192.428865,156.159518 192.603681,156.229229 C195.493326,157.381527 200.726716,162.918921 208.303853,172.841412 Z" id="Triangle" fill="#A2ED88" transform="translate(208.303853, 193.591284) rotate(-179.865818) translate(-208.303853, -193.591284) "></path>
                <path d="M161.40956,53.8459117 L222.40956,118.845912 C175.182557,119.40542 139.782893,119.685174 116.210567,119.685174 C113.426164,119.685174 108.505521,120.30323 103.581264,119.956842 C102.890604,119.908259 101.604186,120.721616 100.711148,120.301897 C100.539812,120.22137 100.439282,119.736042 100.40956,118.845912 C100.648272,116.700224 100.57189,114.700543 100.660615,112.783455 C100.788695,110.016046 101.043543,107.451168 101.262555,105.123073 C101.508003,102.513968 102.211088,100.132586 102.554889,98.1062277 C102.841838,96.4149574 102.97695,94.9862882 103.252138,93.6959663 C103.260818,93.6552672 103.557026,92.6210585 103.681666,91.8478954 C103.883562,90.5954991 104.257622,89.370068 104.262931,89.3398014 C104.326677,88.9763979 104.458791,88.5226954 104.540878,88.1637232 C104.831072,86.8946867 105.595311,85.7295172 105.896653,84.4907901 C106.579095,81.6854827 107.598037,78.9708845 108.570684,76.3650165 C109.440022,74.035928 110.423558,71.7624471 111.345752,69.5911495 C112.547097,66.7625963 114.019953,64.061251 115.330356,61.5097714 C116.403383,59.4204845 117.596447,57.3898737 118.70706,55.4845048 C119.913756,53.4142956 121.399856,51.4983872 122.591599,49.6352894 C123.771398,47.7908642 125.204116,46.1221974 126.392676,44.5550084 C127.497174,43.0986611 129.511173,40.3947825 131.350195,38.5542609 C131.429923,38.4744673 131.485602,38.3725071 131.564467,38.2960155 C131.661661,38.2017468 131.730816,38.0972225 131.825637,38.0100657 C131.842618,37.9944569 131.937666,37.8756731 131.954574,37.8602855 C132.104411,37.7239196 132.149904,37.6206193 132.294265,37.5008037 C132.308421,37.4890547 132.497398,37.2453267 132.511504,37.2337291 C132.639905,37.1281614 132.743693,36.9395162 132.868178,36.8459117 C132.957582,36.7786859 133.022624,36.6912873 133.08116,36.6273143 C133.168445,36.5319233 133.257286,36.4258407 133.342666,36.3231303 C133.404083,36.2492462 133.45645,36.1697767 133.539184,36.1316478 C133.608671,36.0488546 133.721189,35.9605331 133.826171,35.8297832 C134.099479,35.4893912 134.281985,34.8439576 134.464726,34.7942856 C134.74444,34.7182549 134.763674,34.51078 134.923598,34.3078345 C135.224066,33.9265384 135.74486,33.6964231 136.008846,33.3574371 C137.076206,31.9868342 137.621381,30.5312206 139.463037,30.3459117 C139.669001,30.3251875 140.690222,31.5720035 141.370315,32.3478823 C141.660107,32.6784902 141.807963,33.2148444 141.935033,33.0556437 C142.273421,32.6316942 143.284736,34.4599726 143.757149,35.040446 C143.811529,35.1072642 143.898317,35.1465044 143.870906,35.2217349 C143.855449,35.2641559 143.655618,35.4190224 143.757149,35.3484525 C143.958936,35.2081995 144.686612,36.0139606 145.23653,36.6273143 C145.454011,36.8698832 145.534573,37.164018 145.709389,37.2337291 C148.599033,38.3860265 153.832424,43.9234207 161.40956,53.8459117 Z" id="Triangle" fill="#A2ED88" transform="translate(161.409560, 75.384137) scale(-1, 1) rotate(-317.123175) translate(-161.409560, -75.384137) "></path>
            </g>
            <g id="Group" transform="translate(27.000000, 27.000000)" stroke="#000000" stroke-opacity="0.828662817" stroke-width="8">
                <ellipse id="Oval" cx="122.5" cy="122" rx="122.5" ry="122"></ellipse>
                <g id="Group-2" stroke-linecap="square">
                    <path d="M122.5,0 L122.5,244" id="Line"></path>
                    <path d="M39.5,33.5 L206.41508,211.475718" id="Line"></path>
                    <path d="M32,204.233056 L212.453605,40" id="Line"></path>
                    <path d="M0,122 L245,122" id="Line"></path>
                </g>
            </g>
            <path d="" id="Path" stroke="#979797"></path>
            <ellipse id="Oval" fill-opacity="0.755689538" fill="#000000" transform="translate(39.500000, 26.500000) rotate(-93.189159) translate(-39.500000, -26.500000) " cx="39.5" cy="26.5" rx="6.5" ry="3.5"></ellipse>
            <ellipse id="Oval" fill-opacity="0.755689538" fill="#000000" transform="translate(264.500000, 23.500000) rotate(-93.189159) translate(-264.500000, -23.500000) " cx="264.5" cy="23.5" rx="6.5" ry="3.5"></ellipse>
            <ellipse id="Oval" fill-opacity="0.755689538" fill="#000000" transform="translate(218.856191, 22.684648) rotate(-93.189159) translate(-218.856191, -22.684648) " cx="218.856191" cy="22.6846476" rx="6.5" ry="3.5"></ellipse>
            <ellipse id="Oval" fill-opacity="0.755689538" fill="#000000" transform="translate(19.856191, 196.684648) rotate(-114.492421) translate(-19.856191, -196.684648) " cx="19.8561914" cy="196.684648" rx="6.5" ry="3.5"></ellipse>
            <ellipse id="Oval" fill-opacity="0.755689538" fill="#000000" transform="translate(39.500000, 254.500000) rotate(-93.189159) translate(-39.500000, -254.500000) " cx="39.5" cy="254.5" rx="6.5" ry="3.5"></ellipse>
            <ellipse id="Oval" fill-opacity="0.755689538" fill="#000000" transform="translate(254.500000, 282.500000) rotate(-94.261097) translate(-254.500000, -282.500000) " cx="254.5" cy="282.5" rx="6.5" ry="3.5"></ellipse>
            <ellipse id="Oval" fill-opacity="0.755689538" fill="#000000" transform="translate(133.500000, 16.500000) rotate(-93.189159) translate(-133.500000, -16.500000) " cx="133.5" cy="16.5" rx="6.5" ry="3.5"></ellipse>
            <ellipse id="Oval" fill-opacity="0.755689538" fill="#000000" transform="translate(273.500000, 219.500000) rotate(-93.189159) translate(-273.500000, -219.500000) " cx="273.5" cy="219.5" rx="6.5" ry="3.5"></ellipse>
            <ellipse id="Oval" fill-opacity="0.755689538" fill="#000000" transform="translate(18.500000, 104.500000) rotate(-93.189159) translate(-18.500000, -104.500000) " cx="18.5" cy="104.5" rx="6.5" ry="3.5"></ellipse>
            <ellipse id="Oval" fill-opacity="0.755689538" fill="#000000" transform="translate(271.500000, 79.500000) rotate(-93.189159) translate(-271.500000, -79.500000) " cx="271.5" cy="79.5" rx="6.5" ry="3.5"></ellipse>
        </g>
    </g>
</svg>